<?xml version="1.0" encoding="iso-8859-1"?>
<!-- Generator: Adobe Illustrator 19.0.0, SVG Export Plug-In . SVG Version: 6.00 Build 0)  -->
<svg version="1.1" id="Layer_1" xmlns="http://www.w3.org/2000/svg" xmlns:xlink="http://www.w3.org/1999/xlink" x="0px" y="0px"
	 viewBox="0 0 512 512" style="enable-background:new 0 0 512 512;" xml:space="preserve">
<g>
	<g>
		<path d="M356.174,0H155.827c-18.442,0-33.391,14.949-33.391,33.391s14.949,33.391,33.391,33.391h200.348
			c18.442,0,33.391-14.949,33.391-33.391S374.616,0,356.174,0z"/>
	</g>
</g>
<g>
	<g>
		<path d="M421.291,345.043H90.71c-0.993,7.349-1.666,14.761-1.666,22.261c0,3.733,0.13,7.444,0.372,11.13h333.168
			c0.243-3.686,0.373-7.397,0.373-11.13C422.957,359.805,422.284,352.393,421.291,345.043z"/>
	</g>
</g>
<g>
	<g>
		<path d="M95.09,411.826c11.074,40.146,36.96,75.038,73.867,97.706c2.63,1.614,5.652,2.468,8.74,2.468h156.609
			c3.086,0,6.108-0.854,8.74-2.468c36.906-22.668,62.792-57.56,73.866-97.706H95.09z"/>
	</g>
</g>
<g>
	<g>
		<path d="M422.957,200.348c0-36.826-29.956-66.783-66.783-66.783c-3.112,0-6.171,0.232-9.171,0.646
			c0.194-1.175,0.391-2.351,0.611-3.526l5.72-30.511H158.667l5.719,30.511c0.22,1.174,0.417,2.35,0.611,3.526
			c-3.001-0.414-6.058-0.646-9.172-0.646c-36.826,0-66.783,29.956-66.783,66.783c0,26.73,15.79,49.829,38.526,60.492
			c-12.637,15.226-22.289,32.454-28.811,50.813h314.484c-6.52-18.36-16.171-35.587-28.807-50.815
			C407.17,250.174,422.957,227.076,422.957,200.348z M148.311,232.875c-14.804-3.418-25.876-16.699-25.876-32.528
			c0-18.413,14.978-33.391,33.391-33.391c3.859,0,7.562,0.666,11.012,1.874C165.519,191.701,159.178,213.701,148.311,232.875z
			 M363.692,232.875c-10.868-19.176-17.21-41.176-18.53-64.045c3.45-1.209,7.155-1.874,11.012-1.874
			c18.413,0,33.391,14.978,33.391,33.391C389.566,216.175,378.494,229.455,363.692,232.875z"/>
	</g>
</g>
<g>
</g>
<g>
</g>
<g>
</g>
<g>
</g>
<g>
</g>
<g>
</g>
<g>
</g>
<g>
</g>
<g>
</g>
<g>
</g>
<g>
</g>
<g>
</g>
<g>
</g>
<g>
</g>
<g>
</g>
</svg>
